<svg
          width="42"
          height="41"
          viewBox="0 0 42 41"
          fill="currentColor"
          xmlns="http://www.w3.org/2000/svg"
        >
          <path
            d="M25.1693 25.4839C17.3777 27.7519 10.9323 31.0599 6.89771 34.9359L6.71959 35.1079C7.79244 36.0919 8.96885 36.9719 10.2405 37.7199L10.5139 37.3959C11.6158 36.0919 12.7963 34.8319 14.0266 33.6439C17.328 30.4559 21.1057 27.6959 25.1735 25.4799L25.1693 25.4839Z"
            fill="#FFECD4"
            fill-opacity="0.16"
          />
          <path
            d="M0.348755 22.1238C0.659426 26.1678 2.20864 29.8758 4.64016 32.8918L4.752 32.7838C7.2498 30.3958 10.5015 28.2238 14.4242 26.3318C17.8623 24.6718 21.8099 23.2478 26.064 22.1238H0.348755Z"
            fill="#FFECD4"
            fill-opacity="0.16"
          />
          <path
            d="M16.2054 5.50384C23.1769 12.2358 31.9502 16.6878 41.5728 18.3758C40.4129 8.39584 31.6478 0.631836 20.998 0.631836C18.1854 0.631836 15.5054 1.17584 13.0573 2.15584C14.0514 3.31584 15.1118 4.44384 16.2054 5.50384Z"
            fill="#FFECD4"
            fill-opacity="0.16"
          />
          <path
            d="M6.89771 6.32785C10.9323 10.2078 17.3777 13.5118 25.1693 15.7839C21.1016 13.5638 17.3238 10.8078 14.0224 7.61985C12.7963 6.43585 11.6158 5.17585 10.5098 3.86785L10.2364 3.54385C8.96471 4.29185 7.7883 5.17185 6.71959 6.15585L6.89771 6.32785Z"
            fill="#FFECD4"
            fill-opacity="0.16"
          />
          <path
            d="M16.2054 35.7598C15.1077 36.8198 14.0473 37.9478 13.0573 39.1078C15.5012 40.0878 18.1854 40.6318 20.998 40.6318C31.6478 40.6318 40.4129 32.8678 41.5769 22.8838C31.9544 24.5718 23.181 29.0238 16.2096 35.7558L16.2054 35.7598Z"
            fill="#FFECD4"
            fill-opacity="0.16"
          />
          <path
            d="M14.4242 14.9318C10.5015 13.0398 7.2498 10.8678 4.752 8.47984L4.64016 8.37183C2.20864 11.3878 0.659426 15.0958 0.348755 19.1398H26.0599C21.8058 18.0158 17.8623 16.5918 14.4201 14.9278L14.4242 14.9318Z"
            fill="#FFECD4"
            fill-opacity="0.16"
          />
        </svg>